<svg width="34" height="33" viewBox="0 0 34 33" fill="none" xmlns="http://www.w3.org/2000/svg">
<rect x="0.0102539" width="33" height="33" rx="16.5" fill="#FF8181" fill-opacity="0.2"/>
<g clip-path="url(#clip0_1995_3632)">
<g clip-path="url(#clip1_1995_3632)">
<path d="M17.0103 27C22.5331 27 27.0103 22.5228 27.0103 17C27.0103 11.4772 22.5331 7 17.0103 7C11.4874 7 7.01025 11.4772 7.01025 17C7.01025 22.5228 11.4874 27 17.0103 27Z" fill="#FF8181"/>
<path d="M11.0933 22.6923C11.0933 22.6923 13.2471 18.6923 17.2471 18.6923C21.2471 18.6923 23.401 22.6923 23.401 22.6923" fill="white"/>
<path d="M23.4011 23.3077C23.2916 23.3093 23.1837 23.2815 23.0885 23.2275C22.9933 23.1734 22.9143 23.0949 22.8595 23C22.8411 22.9631 20.8226 19.3077 17.2472 19.3077C13.6718 19.3077 11.6565 22.9477 11.6257 23C11.5873 23.0712 11.5353 23.134 11.4726 23.185C11.4099 23.236 11.3378 23.2742 11.2604 23.2973C11.1829 23.3205 11.1017 23.3282 11.0213 23.3199C10.9409 23.3117 10.863 23.2877 10.7918 23.2493C10.7207 23.2109 10.6579 23.1589 10.6068 23.0962C10.5558 23.0335 10.5177 22.9614 10.4945 22.884C10.4714 22.8065 10.4637 22.7253 10.472 22.6449C10.4802 22.5645 10.5042 22.4865 10.5426 22.4154C10.638 22.24 12.9211 18.1077 17.238 18.1077C21.5549 18.1077 23.8472 22.2247 23.9334 22.4C23.9718 22.4712 23.9958 22.5491 24.004 22.6295C24.0123 22.7099 24.0046 22.7911 23.9815 22.8686C23.9583 22.946 23.9201 23.0181 23.8691 23.0808C23.8181 23.1435 23.7553 23.1955 23.6841 23.2339C23.5971 23.2809 23.5 23.3062 23.4011 23.3077Z" fill="black"/>
<path d="M12.8347 15.5016C11.0624 15.5016 10.127 13.9631 10.09 13.8893C10.015 13.7498 9.99664 13.5867 10.0388 13.434C10.0809 13.2814 10.1803 13.1508 10.3163 13.0695C10.4522 12.9883 10.6143 12.9626 10.7688 12.9978C10.9232 13.033 11.0581 13.1264 11.1454 13.2585C11.1762 13.3078 11.7793 14.2708 12.8347 14.2708C13.89 14.2708 14.5147 13.2739 14.5208 13.2616C14.5563 13.1831 14.6078 13.113 14.6721 13.0557C14.7364 12.9984 14.8119 12.9552 14.8939 12.929C14.976 12.9027 15.0626 12.894 15.1482 12.9033C15.2338 12.9126 15.3165 12.9398 15.3909 12.983C15.4653 13.0263 15.5299 13.0847 15.5803 13.1545C15.6308 13.2243 15.666 13.3039 15.6837 13.3881C15.7015 13.4724 15.7014 13.5594 15.6834 13.6437C15.6654 13.7279 15.6299 13.8074 15.5793 13.877C15.5424 13.957 14.607 15.5016 12.8347 15.5016Z" fill="black"/>
<path d="M21.1428 15.5015C19.3705 15.5015 18.4351 13.963 18.3981 13.8892C18.3231 13.7497 18.3047 13.5866 18.3469 13.4339C18.389 13.2813 18.4884 13.1507 18.6244 13.0694C18.7604 12.9882 18.9224 12.9625 19.0769 12.9977C19.2313 13.0329 19.3662 13.1263 19.4535 13.2584C19.4843 13.3077 20.0874 14.2707 21.1428 14.2707C22.1981 14.2707 22.8228 13.2738 22.8289 13.2615C22.9185 13.1383 23.0506 13.0527 23.1997 13.0213C23.3488 12.9899 23.5042 13.0149 23.6359 13.0914C23.7676 13.168 23.8662 13.2907 23.9127 13.4358C23.9591 13.5809 23.9501 13.7381 23.8874 13.8769C23.8505 13.9569 22.9151 15.5015 21.1428 15.5015Z" fill="black"/>
</g>
</g>
<defs>
<clipPath id="clip0_1995_3632">
<rect width="20" height="20" fill="white" transform="translate(7.01025 7)"/>
</clipPath>
<clipPath id="clip1_1995_3632">
<rect width="20" height="20" fill="white" transform="translate(7.01025 7)"/>
</clipPath>
</defs>
</svg>
