<svg width="34" height="33" viewBox="0 0 34 33" fill="none" xmlns="http://www.w3.org/2000/svg">
<rect x="0.677246" width="33" height="33" rx="16.5" fill="#12CD9C" fill-opacity="0.2"/>
<g clip-path="url(#clip0_1957_4817)">
<path d="M17 27C22.5228 27 27 22.5228 27 17C27 11.4772 22.5228 7 17 7C11.4772 7 7 11.4772 7 17C7 22.5228 11.4772 27 17 27Z" fill="#12CD9C"/>
<path d="M10.6924 18.6923C10.6924 18.6923 12.8462 22.6923 16.8462 22.6923C20.8462 22.6923 23.0001 18.6923 23.0001 18.6923" fill="white"/>
<path d="M16.8459 23.3077C12.5382 23.3077 10.2459 19.16 10.1505 19C10.073 18.8564 10.0557 18.6878 10.1024 18.5314C10.1492 18.3751 10.2561 18.2437 10.3997 18.1661C10.5434 18.0886 10.7119 18.0713 10.8683 18.1181C11.0247 18.1648 11.1561 18.2717 11.2336 18.4154C11.2521 18.4523 13.2705 22.1077 16.8459 22.1077C20.4213 22.1077 22.4367 18.4677 22.4582 18.4154C22.5357 18.2717 22.6671 18.1648 22.8235 18.1181C22.9799 18.0713 23.1484 18.0886 23.2921 18.1661C23.4357 18.2437 23.5426 18.3751 23.5894 18.5314C23.6361 18.6878 23.6188 18.8564 23.5413 19C23.4459 19.16 21.1536 23.3077 16.8459 23.3077Z" fill="black"/>
<path d="M14.6491 15.5015C14.5417 15.5009 14.4364 15.4722 14.3435 15.4182C14.2507 15.3642 14.1736 15.2869 14.1199 15.1938C14.0953 15.1538 13.5045 14.1846 12.4337 14.1846C11.363 14.1846 10.7507 15.1815 10.7445 15.1938C10.7091 15.2723 10.6575 15.3425 10.5932 15.3998C10.529 15.4571 10.4534 15.5002 10.3714 15.5265C10.2894 15.5527 10.2028 15.5615 10.1172 15.5522C10.0316 15.5429 9.94888 15.5157 9.87444 15.4724C9.8 15.4291 9.73547 15.3707 9.68502 15.3009C9.63458 15.2312 9.59934 15.1516 9.58158 15.0673C9.56383 14.983 9.56395 14.896 9.58195 14.8118C9.59994 14.7276 9.63541 14.6481 9.68606 14.5785C9.72606 14.5108 10.6614 12.9662 12.4337 12.9662C14.2061 12.9662 15.1384 14.5046 15.1784 14.5785C15.2322 14.6717 15.2607 14.7775 15.2608 14.8852C15.261 14.9929 15.2329 15.0988 15.1793 15.1922C15.1257 15.2857 15.0486 15.3634 14.9555 15.4177C14.8625 15.472 14.7568 15.5009 14.6491 15.5015Z" fill="black"/>
<path d="M22.9568 15.5015C22.8494 15.5009 22.744 15.4722 22.6512 15.4182C22.5583 15.3642 22.4812 15.2869 22.4275 15.1938C22.4029 15.1538 21.8121 14.1846 20.7414 14.1846C19.6706 14.1846 19.0583 15.1815 19.0521 15.1938C19.0167 15.2723 18.9651 15.3425 18.9009 15.3998C18.8366 15.4571 18.761 15.5002 18.679 15.5265C18.597 15.5527 18.5104 15.5615 18.4248 15.5522C18.3392 15.5429 18.2565 15.5157 18.1821 15.4724C18.1076 15.4291 18.0431 15.3707 17.9926 15.3009C17.9422 15.2312 17.907 15.1516 17.8892 15.0673C17.8714 14.983 17.8716 14.896 17.8896 14.8118C17.9076 14.7276 17.943 14.6481 17.9937 14.5785C18.0337 14.5108 18.9691 12.9662 20.7414 12.9662C22.5137 12.9662 23.446 14.5046 23.486 14.5785C23.5398 14.6717 23.5683 14.7775 23.5684 14.8852C23.5686 14.9929 23.5405 15.0988 23.4869 15.1922C23.4333 15.2857 23.3562 15.3634 23.2631 15.4177C23.1701 15.472 23.0645 15.5009 22.9568 15.5015Z" fill="black"/>
</g>
<defs>
<clipPath id="clip0_1957_4817">
<rect width="20" height="20" fill="white" transform="translate(7 7)"/>
</clipPath>
</defs>
</svg>
